# xmcd CD database file
#
# Track frame offsets:
#	150
#	14758
#	31209
#	44262
#	62042
#	75144
#	89110
#	102341
#	119952
#	134156
#	148720
#	163855
#	182861
#	198357
#	215501
#	232670
#	248635
#	267009
#
# Disc length: 3775 seconds
#
# Revision: 0
# Processed by: cddbd v1.5.2PL0 Copyright (c) Steve Scherf et al.
# Submitted via: CDex 1.70beta2
#
DISCID=070ebd12
DTITLE=Louisiana Washboard Five - Futuristic Rhythm
DYEAR=2004
DGENRE=Jazz
TTITLE0=Futuristic Rhythm
TTITLE1=Harlem Fuss
TTITLE2=Bandbox Stomp
TTITLE3=Davenport Blues
TTITLE4=Burnin' The Iceberg
TTITLE5=Crazy Chords
TTITLE6=Avalon
TTITLE7=If You Like Me Like I Like You
TTITLE8=Decatur Street Tutti
TTITLE9=Black And Blue?
TTITLE10=Bucktown Stomp
TTITLE11=Every Evening
TTITLE12=After a While
TTITLE13=Sorry
TTITLE14=Slow and Steady
TTITLE15=Lina Blues
TTITLE16=Michigander Blues
TTITLE17=Moanful Blues
EXTD=YEAR: 2004
EXTT0=
EXTT1=
EXTT2=
EXTT3=
EXTT4=
EXTT5=
EXTT6=
EXTT7=
EXTT8=
EXTT9=
EXTT10=
EXTT11=
EXTT12=
EXTT13=
EXTT14=
EXTT15=
EXTT16=
EXTT17=
PLAYORDER=
